<mxfile host="app.diagrams.net" modified="2021-09-16T16:06:59.016Z" agent="5.0 (Windows NT 10.0; Win64; x64) AppleWebKit/537.36 (KHTML, like Gecko) Chrome/93.0.4577.63 Safari/537.36" etag="7Mp4sMGWjCFkjVybFJri" version="15.2.7" type="github">
  <diagram id="Ueer9ZA-vzcuylcmyDbZ" name="Page-1">
    <mxGraphModel dx="1221" dy="681" grid="1" gridSize="10" guides="1" tooltips="1" connect="1" arrows="1" fold="1" page="1" pageScale="1" pageWidth="3300" pageHeight="4681" math="0" shadow="0">
      <root>
        <mxCell id="0" />
        <mxCell id="1" parent="0" />
        <mxCell id="iOTU2CLurn8t4D7s9m_m-1" value="Власов Максим Андреевич" style="rounded=1;whiteSpace=wrap;html=1;" vertex="1" parent="1">
          <mxGeometry x="400" y="420" width="120" height="60" as="geometry" />
        </mxCell>
        <mxCell id="iOTU2CLurn8t4D7s9m_m-2" value="Агапеева Александра Борисовна" style="rounded=1;whiteSpace=wrap;html=1;" vertex="1" parent="1">
          <mxGeometry x="220" y="420" width="120" height="60" as="geometry" />
        </mxCell>
        <mxCell id="iOTU2CLurn8t4D7s9m_m-4" value="" style="endArrow=classic;startArrow=classic;html=1;exitX=1;exitY=0.5;exitDx=0;exitDy=0;" edge="1" parent="1" source="iOTU2CLurn8t4D7s9m_m-2" target="iOTU2CLurn8t4D7s9m_m-1">
          <mxGeometry width="50" height="50" relative="1" as="geometry">
            <mxPoint x="350" y="500" as="sourcePoint" />
            <mxPoint x="400" y="450" as="targetPoint" />
          </mxGeometry>
        </mxCell>
        <mxCell id="iOTU2CLurn8t4D7s9m_m-5" value="Сутырина Галина Александровна" style="rounded=1;whiteSpace=wrap;html=1;" vertex="1" parent="1">
          <mxGeometry x="360" y="120" width="120" height="60" as="geometry" />
        </mxCell>
        <mxCell id="iOTU2CLurn8t4D7s9m_m-6" value="Власов Андрей Михайлович" style="rounded=1;whiteSpace=wrap;html=1;" vertex="1" parent="1">
          <mxGeometry x="700" y="120" width="120" height="60" as="geometry" />
        </mxCell>
        <mxCell id="iOTU2CLurn8t4D7s9m_m-8" value="" style="endArrow=classic;html=1;entryX=0.5;entryY=0;entryDx=0;entryDy=0;exitX=0.25;exitY=1;exitDx=0;exitDy=0;" edge="1" parent="1" source="iOTU2CLurn8t4D7s9m_m-11" target="iOTU2CLurn8t4D7s9m_m-1">
          <mxGeometry width="50" height="50" relative="1" as="geometry">
            <mxPoint x="570" y="290" as="sourcePoint" />
            <mxPoint x="560" y="350" as="targetPoint" />
          </mxGeometry>
        </mxCell>
        <mxCell id="iOTU2CLurn8t4D7s9m_m-9" value="" style="endArrow=classic;startArrow=none;html=1;entryX=0;entryY=0.5;entryDx=0;entryDy=0;exitX=1;exitY=0.5;exitDx=0;exitDy=0;" edge="1" parent="1" source="iOTU2CLurn8t4D7s9m_m-11" target="iOTU2CLurn8t4D7s9m_m-6">
          <mxGeometry width="50" height="50" relative="1" as="geometry">
            <mxPoint x="510" y="400" as="sourcePoint" />
            <mxPoint x="560" y="350" as="targetPoint" />
            <Array as="points" />
          </mxGeometry>
        </mxCell>
        <mxCell id="iOTU2CLurn8t4D7s9m_m-13" value="Женщина" style="rounded=1;whiteSpace=wrap;html=1;" vertex="1" parent="1">
          <mxGeometry x="940" y="120" width="120" height="60" as="geometry" />
        </mxCell>
        <mxCell id="iOTU2CLurn8t4D7s9m_m-14" value="" style="endArrow=classic;startArrow=classic;html=1;entryX=0;entryY=0.5;entryDx=0;entryDy=0;exitX=1;exitY=0.5;exitDx=0;exitDy=0;" edge="1" parent="1" source="iOTU2CLurn8t4D7s9m_m-6" target="iOTU2CLurn8t4D7s9m_m-13">
          <mxGeometry width="50" height="50" relative="1" as="geometry">
            <mxPoint x="860" y="170" as="sourcePoint" />
            <mxPoint x="910" y="120" as="targetPoint" />
            <Array as="points">
              <mxPoint x="880" y="230" />
            </Array>
          </mxGeometry>
        </mxCell>
        <mxCell id="iOTU2CLurn8t4D7s9m_m-15" value="" style="rounded=1;whiteSpace=wrap;html=1;" vertex="1" parent="1">
          <mxGeometry x="820" y="200" width="120" height="60" as="geometry" />
        </mxCell>
        <mxCell id="iOTU2CLurn8t4D7s9m_m-16" value="" style="endArrow=classic;html=1;exitX=0.5;exitY=1;exitDx=0;exitDy=0;" edge="1" parent="1" source="iOTU2CLurn8t4D7s9m_m-15">
          <mxGeometry width="50" height="50" relative="1" as="geometry">
            <mxPoint x="570" y="480" as="sourcePoint" />
            <mxPoint x="1020" y="350" as="targetPoint" />
          </mxGeometry>
        </mxCell>
        <mxCell id="iOTU2CLurn8t4D7s9m_m-11" value="брак" style="rounded=1;whiteSpace=wrap;html=1;" vertex="1" parent="1">
          <mxGeometry x="520" y="190" width="120" height="60" as="geometry" />
        </mxCell>
        <mxCell id="iOTU2CLurn8t4D7s9m_m-17" value="" style="endArrow=none;startArrow=classic;html=1;entryX=0;entryY=0.5;entryDx=0;entryDy=0;exitX=1;exitY=0.5;exitDx=0;exitDy=0;" edge="1" parent="1" source="iOTU2CLurn8t4D7s9m_m-5" target="iOTU2CLurn8t4D7s9m_m-11">
          <mxGeometry width="50" height="50" relative="1" as="geometry">
            <mxPoint x="480" y="150" as="sourcePoint" />
            <mxPoint x="700" y="150" as="targetPoint" />
            <Array as="points" />
          </mxGeometry>
        </mxCell>
      </root>
    </mxGraphModel>
  </diagram>
</mxfile>
